<svg width="2400" height="467" viewBox="0 0 2400 467" fill="none" xmlns="http://www.w3.org/2000/svg">
<g opacity="0.07">
<mask id="path-1-inside-1_2958_332" fill="white">
<path fill-rule="evenodd" clip-rule="evenodd" d="M1231.55 0.47687C1222.54 2.38723 1215.39 9.62079 1213.4 18.8386C1212.88 21.2431 1212.89 26.1123 1213.42 28.5375C1215.35 37.303 1221.93 44.2127 1230.63 46.6096C1232.37 47.0875 1233.39 47.1822 1236.75 47.1786C1240.39 47.1747 1241.01 47.1049 1243.11 46.4661C1249.72 44.4566 1254.85 40.1759 1257.83 34.2009C1259.68 30.4916 1260.28 27.8115 1260.26 23.3984C1260.24 19.315 1259.77 17.1485 1258.13 13.6482C1256.85 10.9181 1255.88 9.50522 1253.72 7.21664C1250.55 3.84858 1246.01 1.33873 1241.38 0.384463C1238.73 -0.162173 1234.37 -0.121046 1231.55 0.47687ZM1207.71 43.2465C1210.51 49.5851 1216.15 55.4005 1222.64 58.6475C1230.5 62.5815 1240.12 62.9743 1248.35 59.6968C1255.37 56.9025 1261.41 51.3869 1264.95 44.5495C1265.62 43.2504 1266.17 42.1149 1266.17 42.0262C1266.17 41.9371 1265.26 42.6405 1264.15 43.589C1258.9 48.0779 1252.66 51.0756 1245.34 52.6244C1242.95 53.1307 1241.84 53.2017 1236.49 53.1937C1231.17 53.1853 1230.04 53.1101 1227.82 52.6132C1220.27 50.9254 1213.13 47.3822 1208.67 43.1088C1207.97 42.4328 1207.33 41.8799 1207.25 41.8799C1207.17 41.8799 1207.38 42.495 1207.71 43.2465ZM1223.57 72.9246C1223.67 77.1103 1223.81 83.2881 1223.9 86.6533L1224.06 92.7717L1228.26 92.079C1233.53 91.2088 1239.59 90.5948 1245.01 90.3813L1249.21 90.216L1249.35 89.28C1249.42 88.7651 1249.56 83.1631 1249.65 76.831L1249.83 65.3181L1248.02 65.949C1244.36 67.2274 1241.13 67.7342 1236.62 67.7342C1232.11 67.7342 1229.15 67.2711 1225.33 65.9691L1223.41 65.3144L1223.57 72.9246ZM1273.32 95.2675C1272.18 95.3867 1270.38 95.6738 1269.33 95.9057C1267.64 96.2806 1266.64 96.2941 1260.35 96.0278C1244.18 95.3429 1228.48 96.987 1216.45 100.625C1207.28 103.398 1198.96 107.609 1192.73 112.634C1190 114.836 1185.95 119.131 1183.84 122.074C1181.67 125.099 1178.51 131.397 1177.28 135.132C1175.55 140.403 1174.54 146.816 1174.54 152.485C1174.54 166.444 1180.5 180.131 1191.23 190.789C1197.12 196.648 1203.96 201.239 1214.24 206.243C1219.41 208.764 1220.83 209.391 1220.98 209.225C1221.03 209.169 1220.91 203.56 1220.72 196.76C1220.53 189.96 1220.37 183.724 1220.36 182.903C1220.35 181.437 1220.33 181.396 1219.25 180.691C1209.31 174.236 1203.7 167.523 1201.8 159.797C1199.36 149.872 1202.1 140.102 1209.01 134.138C1217.51 126.803 1232.87 122.579 1251.08 122.575L1255.12 122.574L1256.41 123.897C1258.65 126.183 1261.53 128.352 1263.69 129.366C1270.19 132.414 1284.47 134.552 1296.06 134.21C1305.22 133.94 1310.62 132.465 1312.25 129.787C1315.03 125.229 1304.77 109.397 1293.59 100.998C1286.95 96.0054 1281.37 94.4301 1273.32 95.2675ZM1286.84 108.48C1285.69 109.016 1284.91 110.253 1284.91 111.55C1284.91 113.161 1286.63 114.766 1288.35 114.764C1289.14 114.762 1290.5 113.911 1291.05 113.077C1291.61 112.221 1291.61 110.548 1291.06 109.701C1290.08 108.208 1288.45 107.735 1286.84 108.48ZM1242.87 128.586C1237.23 129.046 1230.86 130.163 1226.52 131.45L1224.75 131.974L1224.91 136.45C1224.99 138.911 1225.29 150.589 1225.57 162.4C1226.74 211.395 1228.32 270.153 1228.48 270.308C1228.63 270.462 1237.44 266.367 1241.83 264.1L1244.95 262.487L1245.13 258.452C1245.23 256.233 1245.49 247.096 1245.72 238.148C1245.95 229.2 1246.31 215.437 1246.52 207.563C1246.73 199.688 1247.19 181.415 1247.54 166.955C1247.9 152.496 1248.26 137.883 1248.35 134.483L1248.53 128.3L1247 128.337C1246.16 128.357 1244.3 128.469 1242.87 128.586ZM1313.17 133.962C1313.61 136.376 1315.25 139.259 1316.84 140.435C1318.47 141.632 1319.8 142.101 1322.63 142.473C1325.93 142.907 1326.24 143.034 1327.95 144.665L1329.22 145.871L1329.08 144.363C1328.8 141.426 1327.21 139.906 1323.45 138.978C1320.17 138.166 1317.94 137.013 1315.46 134.841C1314.29 133.82 1313.26 132.986 1313.17 132.986C1313.07 132.986 1313.08 133.425 1313.17 133.962ZM1252.28 205.806C1252.18 210.065 1252.03 215.834 1251.95 218.626L1251.78 223.701L1254.98 225.784C1260.51 229.385 1264.09 233.517 1265.56 237.984C1266.52 240.915 1266.57 244.693 1265.68 247.513C1264.56 251.089 1262.89 253.856 1260.05 256.86C1255.26 261.916 1248.5 265.963 1232.69 273.243C1219.5 279.314 1213.54 282.591 1207.64 287.007C1203.99 289.738 1199.42 294.255 1197.42 297.109C1191.5 305.544 1189.75 315.354 1192.64 323.981C1195.89 333.692 1204.71 341.331 1220.97 348.514C1222.95 349.391 1224.61 350.072 1224.65 350.028C1224.69 349.984 1224.63 346.493 1224.51 342.269C1224.38 338.046 1224.28 333.869 1224.27 332.987L1224.26 331.383L1221.72 330.028C1213.75 325.772 1209.76 321.576 1209.48 317.159C1209.24 313.467 1210.71 310.055 1214.05 306.558C1218.77 301.62 1224.35 298.444 1242.35 290.456C1254.64 284.999 1259.76 282.379 1265.6 278.56C1277.36 270.857 1284.56 261.296 1287 250.147C1290.92 232.184 1282.67 216.194 1263.21 204.041C1260.55 202.383 1252.89 198.064 1252.61 198.062C1252.52 198.062 1252.37 201.547 1252.28 205.806ZM1238.82 296.689C1236.04 297.95 1232.73 299.485 1231.48 300.099L1229.2 301.216L1229.2 303.196C1229.2 304.285 1229.38 311.853 1229.59 320.013C1230.11 339.747 1230.97 376.364 1231.15 386.261C1231.23 390.627 1231.37 395.27 1231.44 396.578L1231.59 398.956L1236.19 396.818C1238.72 395.642 1240.98 394.609 1241.22 394.523C1241.8 394.311 1241.86 392.994 1242.35 369.861C1242.57 359.339 1243.04 339.367 1243.39 325.48C1244.18 293.653 1244.16 294.665 1244.01 294.519C1243.94 294.452 1241.61 295.428 1238.82 296.689ZM1248.63 347.548C1248.54 349.584 1248.43 353.365 1248.38 355.95L1248.27 360.65L1250.65 362.105C1254.05 364.186 1255.9 365.642 1258.14 367.986C1264.79 374.945 1265.06 382.529 1258.89 388.803C1255.7 392.037 1251.81 394.411 1243.55 398.143C1222.61 407.612 1212.66 414.72 1208.01 423.525C1206.13 427.074 1205.65 429.018 1205.65 432.985C1205.65 436.096 1206.08 439.106 1206.52 439.099C1206.61 439.098 1207 438.249 1207.39 437.212C1208.6 434 1210.53 431.189 1213.7 428.019C1219.22 422.491 1224.86 419.42 1240.4 413.468C1248.93 410.2 1252.56 408.685 1256.13 406.905C1269.59 400.183 1275.71 392.005 1276.46 379.72C1277.15 368.424 1270.86 358.201 1257.71 349.241C1255.06 347.442 1251.45 345.225 1249.56 344.249L1248.78 343.846L1248.63 347.548ZM1236.49 419.548L1232.2 421.296L1232.27 430.264C1232.31 435.196 1232.44 444.749 1232.56 451.491C1232.77 463.062 1232.82 463.818 1233.33 464.97C1233.73 465.886 1234.1 466.287 1234.78 466.573C1236.93 467.472 1239.12 466.773 1239.94 464.923C1240.42 463.834 1240.47 462.661 1240.8 444.991C1241.22 423.217 1241.25 417.749 1240.98 417.779C1240.87 417.791 1238.85 418.587 1236.49 419.548Z"/>
</mask>
<path fill-rule="evenodd" clip-rule="evenodd" d="M1231.55 0.47687C1222.54 2.38723 1215.39 9.62079 1213.4 18.8386C1212.88 21.2431 1212.89 26.1123 1213.42 28.5375C1215.35 37.303 1221.93 44.2127 1230.63 46.6096C1232.37 47.0875 1233.39 47.1822 1236.75 47.1786C1240.39 47.1747 1241.01 47.1049 1243.11 46.4661C1249.72 44.4566 1254.85 40.1759 1257.83 34.2009C1259.68 30.4916 1260.28 27.8115 1260.26 23.3984C1260.24 19.315 1259.77 17.1485 1258.13 13.6482C1256.85 10.9181 1255.88 9.50522 1253.72 7.21664C1250.55 3.84858 1246.01 1.33873 1241.38 0.384463C1238.73 -0.162173 1234.37 -0.121046 1231.55 0.47687ZM1207.71 43.2465C1210.51 49.5851 1216.15 55.4005 1222.64 58.6475C1230.5 62.5815 1240.12 62.9743 1248.35 59.6968C1255.37 56.9025 1261.41 51.3869 1264.95 44.5495C1265.62 43.2504 1266.17 42.1149 1266.17 42.0262C1266.17 41.9371 1265.26 42.6405 1264.15 43.589C1258.9 48.0779 1252.66 51.0756 1245.34 52.6244C1242.95 53.1307 1241.84 53.2017 1236.49 53.1937C1231.17 53.1853 1230.04 53.1101 1227.82 52.6132C1220.27 50.9254 1213.13 47.3822 1208.67 43.1088C1207.97 42.4328 1207.33 41.8799 1207.25 41.8799C1207.17 41.8799 1207.38 42.495 1207.71 43.2465ZM1223.57 72.9246C1223.67 77.1103 1223.81 83.2881 1223.9 86.6533L1224.06 92.7717L1228.26 92.079C1233.53 91.2088 1239.59 90.5948 1245.01 90.3813L1249.21 90.216L1249.35 89.28C1249.42 88.7651 1249.56 83.1631 1249.65 76.831L1249.83 65.3181L1248.02 65.949C1244.36 67.2274 1241.13 67.7342 1236.62 67.7342C1232.11 67.7342 1229.15 67.2711 1225.33 65.9691L1223.41 65.3144L1223.57 72.9246ZM1273.32 95.2675C1272.18 95.3867 1270.38 95.6738 1269.33 95.9057C1267.64 96.2806 1266.64 96.2941 1260.35 96.0278C1244.18 95.3429 1228.48 96.987 1216.45 100.625C1207.28 103.398 1198.96 107.609 1192.73 112.634C1190 114.836 1185.95 119.131 1183.84 122.074C1181.67 125.099 1178.51 131.397 1177.28 135.132C1175.55 140.403 1174.54 146.816 1174.54 152.485C1174.54 166.444 1180.5 180.131 1191.23 190.789C1197.12 196.648 1203.96 201.239 1214.24 206.243C1219.41 208.764 1220.83 209.391 1220.98 209.225C1221.03 209.169 1220.91 203.56 1220.72 196.76C1220.53 189.96 1220.37 183.724 1220.36 182.903C1220.35 181.437 1220.33 181.396 1219.25 180.691C1209.31 174.236 1203.7 167.523 1201.8 159.797C1199.36 149.872 1202.1 140.102 1209.01 134.138C1217.51 126.803 1232.87 122.579 1251.08 122.575L1255.12 122.574L1256.41 123.897C1258.65 126.183 1261.53 128.352 1263.69 129.366C1270.19 132.414 1284.47 134.552 1296.06 134.21C1305.22 133.94 1310.62 132.465 1312.25 129.787C1315.03 125.229 1304.77 109.397 1293.59 100.998C1286.95 96.0054 1281.37 94.4301 1273.32 95.2675ZM1286.84 108.48C1285.69 109.016 1284.91 110.253 1284.91 111.55C1284.91 113.161 1286.63 114.766 1288.35 114.764C1289.14 114.762 1290.5 113.911 1291.05 113.077C1291.61 112.221 1291.61 110.548 1291.06 109.701C1290.08 108.208 1288.45 107.735 1286.84 108.48ZM1242.87 128.586C1237.23 129.046 1230.86 130.163 1226.52 131.45L1224.75 131.974L1224.91 136.45C1224.99 138.911 1225.29 150.589 1225.57 162.4C1226.74 211.395 1228.32 270.153 1228.48 270.308C1228.63 270.462 1237.44 266.367 1241.83 264.1L1244.95 262.487L1245.13 258.452C1245.23 256.233 1245.49 247.096 1245.72 238.148C1245.95 229.2 1246.31 215.437 1246.52 207.563C1246.73 199.688 1247.19 181.415 1247.54 166.955C1247.9 152.496 1248.26 137.883 1248.35 134.483L1248.53 128.3L1247 128.337C1246.16 128.357 1244.3 128.469 1242.87 128.586ZM1313.17 133.962C1313.61 136.376 1315.25 139.259 1316.84 140.435C1318.47 141.632 1319.8 142.101 1322.63 142.473C1325.93 142.907 1326.24 143.034 1327.95 144.665L1329.22 145.871L1329.08 144.363C1328.8 141.426 1327.21 139.906 1323.45 138.978C1320.17 138.166 1317.94 137.013 1315.46 134.841C1314.29 133.82 1313.26 132.986 1313.17 132.986C1313.07 132.986 1313.08 133.425 1313.17 133.962ZM1252.28 205.806C1252.18 210.065 1252.03 215.834 1251.95 218.626L1251.78 223.701L1254.98 225.784C1260.51 229.385 1264.09 233.517 1265.56 237.984C1266.52 240.915 1266.57 244.693 1265.68 247.513C1264.56 251.089 1262.89 253.856 1260.05 256.86C1255.26 261.916 1248.5 265.963 1232.69 273.243C1219.5 279.314 1213.54 282.591 1207.64 287.007C1203.99 289.738 1199.42 294.255 1197.42 297.109C1191.5 305.544 1189.75 315.354 1192.64 323.981C1195.89 333.692 1204.71 341.331 1220.97 348.514C1222.95 349.391 1224.61 350.072 1224.65 350.028C1224.69 349.984 1224.63 346.493 1224.51 342.269C1224.38 338.046 1224.28 333.869 1224.27 332.987L1224.26 331.383L1221.72 330.028C1213.75 325.772 1209.76 321.576 1209.48 317.159C1209.24 313.467 1210.71 310.055 1214.05 306.558C1218.77 301.62 1224.35 298.444 1242.35 290.456C1254.64 284.999 1259.76 282.379 1265.6 278.56C1277.36 270.857 1284.56 261.296 1287 250.147C1290.92 232.184 1282.67 216.194 1263.21 204.041C1260.55 202.383 1252.89 198.064 1252.61 198.062C1252.52 198.062 1252.37 201.547 1252.28 205.806ZM1238.82 296.689C1236.04 297.95 1232.73 299.485 1231.48 300.099L1229.2 301.216L1229.2 303.196C1229.2 304.285 1229.38 311.853 1229.59 320.013C1230.11 339.747 1230.97 376.364 1231.15 386.261C1231.23 390.627 1231.37 395.27 1231.44 396.578L1231.59 398.956L1236.19 396.818C1238.72 395.642 1240.98 394.609 1241.22 394.523C1241.8 394.311 1241.86 392.994 1242.35 369.861C1242.57 359.339 1243.04 339.367 1243.39 325.48C1244.18 293.653 1244.16 294.665 1244.01 294.519C1243.94 294.452 1241.61 295.428 1238.82 296.689ZM1248.63 347.548C1248.54 349.584 1248.43 353.365 1248.38 355.95L1248.27 360.65L1250.65 362.105C1254.05 364.186 1255.9 365.642 1258.14 367.986C1264.79 374.945 1265.06 382.529 1258.89 388.803C1255.7 392.037 1251.81 394.411 1243.55 398.143C1222.61 407.612 1212.66 414.72 1208.01 423.525C1206.13 427.074 1205.65 429.018 1205.65 432.985C1205.65 436.096 1206.08 439.106 1206.52 439.099C1206.61 439.098 1207 438.249 1207.39 437.212C1208.6 434 1210.53 431.189 1213.7 428.019C1219.22 422.491 1224.86 419.42 1240.4 413.468C1248.93 410.2 1252.56 408.685 1256.13 406.905C1269.59 400.183 1275.71 392.005 1276.46 379.72C1277.15 368.424 1270.86 358.201 1257.71 349.241C1255.06 347.442 1251.45 345.225 1249.56 344.249L1248.78 343.846L1248.63 347.548ZM1236.49 419.548L1232.2 421.296L1232.27 430.264C1232.31 435.196 1232.44 444.749 1232.56 451.491C1232.77 463.062 1232.82 463.818 1233.33 464.97C1233.73 465.886 1234.1 466.287 1234.78 466.573C1236.93 467.472 1239.12 466.773 1239.94 464.923C1240.42 463.834 1240.47 462.661 1240.8 444.991C1241.22 423.217 1241.25 417.749 1240.98 417.779C1240.87 417.791 1238.85 418.587 1236.49 419.548Z" stroke="#E59F14" stroke-width="11.1182" mask="url(#path-1-inside-1_2958_332)"/>
</g>
<path fill-rule="evenodd" clip-rule="evenodd" d="M99.5566 135.482C57.0877 147.171 27.5651 170.234 11.4498 204.3C-9.9827 249.599 -0.715714 297.808 34.1354 322.356C47.5122 331.779 53.4769 333.486 71.9309 333.162C124.192 332.244 145.815 329.772 149.308 324.318C156.324 313.352 168.17 278.154 166.018 274.669C164.803 272.708 154.945 280.805 144.109 292.662C112.834 326.881 82.31 334.503 61.1746 313.367C51.0163 303.209 50.0489 299.952 50.1327 276.231C50.3117 226.894 65.9433 187.061 96.2543 158.708C112.053 143.93 116.662 141.675 131.056 141.675C153.315 141.675 168.139 156.43 170.95 181.378C172.957 199.173 178.015 204.098 182.007 192.142C183.23 188.474 189.175 174.572 195.22 161.245C201.261 147.914 206.205 136.384 206.205 135.615C206.205 134.849 202.198 136.045 197.3 138.277C190.604 141.328 183.34 140.837 168.04 136.293C144.143 129.193 123.29 128.949 99.5566 135.482ZM363.458 135.55C306.321 154.202 270.685 200.141 270.51 255.358C270.377 297.591 287.448 323.225 321.88 332.499C370.55 345.602 437.598 306.599 457.404 253.659C467.459 226.788 467.627 191.175 457.807 169.54C443.669 138.403 401.383 123.167 363.458 135.55ZM970.82 134.385C951.38 138.967 921.442 154.526 906.02 168.066C899.023 174.21 888.248 188.356 882.074 199.497C872.075 217.551 870.853 223.348 870.853 252.741C870.853 283.254 871.71 286.941 882.279 301.918C897.259 323.145 918.524 334.164 943.221 333.497C993.673 332.137 1014.36 329.578 1017.75 324.283C1024.43 313.839 1036.63 278.223 1034.63 274.985C1033.53 273.199 1023.65 281.277 1012.68 292.94C980.658 326.976 950.595 334.365 929.597 313.367C919.454 303.224 918.467 299.922 918.509 276.231C918.593 228.658 935.908 185.126 965.648 157.71C980.51 144.01 985.45 141.675 999.558 141.675C1021.73 141.675 1036.56 156.468 1039.37 181.378C1041.38 199.173 1046.44 204.098 1050.43 192.142C1051.65 188.474 1057.6 174.572 1063.64 161.245C1069.68 147.914 1074.63 136.384 1074.63 135.615C1074.63 134.849 1070.62 136.045 1065.72 138.277C1059.03 141.328 1051.76 140.837 1036.46 136.293C1014.35 129.726 993.193 129.109 970.82 134.385ZM594.71 137.809C594.71 139.481 599.067 141.941 604.396 143.278C609.72 144.615 614.961 148.013 616.043 150.824C618.568 157.409 572.569 305.357 565.438 313.588C562.467 317.016 554.987 320.829 548.809 322.063C542.631 323.301 537.577 326.066 537.577 328.214C537.577 330.686 556.347 332.118 588.772 332.118C640.766 332.118 655.705 328.108 633.084 320.219C618.694 315.203 618.523 311.059 631.061 271.374C644.472 228.917 652.86 229.911 664.816 275.374C674.014 310.347 682.63 323.171 700.208 328.054C716.662 332.625 736.716 333.234 754.355 329.707C768.12 326.953 768.139 319.419 754.385 317.5C749.312 316.795 741.13 312.51 736.201 307.978C726.893 299.419 697.549 244.655 697.549 235.841C697.549 233.072 703.445 228.677 710.655 226.072C742.494 214.557 758.08 184.3 745.625 158.179C735.862 137.71 723.19 134.438 654.353 134.613C621.551 134.701 594.71 136.137 594.71 137.809ZM378.465 144.185C344.219 161.066 309.109 238.508 313.76 286.903C316.277 313.101 324.905 324.5 342.208 324.5C353.871 324.5 358.994 321.537 373.544 306.366C419.349 258.603 438.5 165.701 407.081 143.69C396.763 136.468 394.032 136.514 378.465 144.185ZM672.753 145.545C667.493 154.054 648.034 216.035 648.034 224.282C648.034 231.221 650.129 233.088 657.922 233.088C681.468 233.088 700.204 211.743 703.822 180.792C705.567 165.861 704.47 160.757 697.663 152.149C689.318 141.599 677.183 138.38 672.753 145.545ZM203.619 294.662C193.308 299.754 185.618 317.45 189.035 328.218C191.282 335.299 194.043 336.163 211.252 335.162C228.407 334.167 231.534 332.693 235.899 323.548C246.328 301.704 226.068 283.574 203.619 294.662ZM474.319 299.808C467.238 306.888 465.044 312.605 465.924 321.709C467.055 333.451 467.931 334.076 484.744 335.165C505.43 336.506 514.723 329.658 514.723 313.074C514.723 290.373 491.409 282.717 474.319 299.808ZM801.611 294.662C791.301 299.754 783.61 317.45 787.027 328.218C789.274 335.299 792.036 336.163 809.244 335.162C826.399 334.167 829.526 332.693 833.891 323.548C844.32 301.704 824.061 283.574 801.611 294.662ZM1072.04 294.749C1061.82 299.69 1054.02 317.405 1057.4 328.027C1059.47 334.556 1063.04 335.927 1077.93 335.927C1099.54 335.927 1105.1 331.254 1105.1 313.074C1105.1 291.687 1092.65 284.785 1072.04 294.749Z" fill="white"/>
<path fill-rule="evenodd" clip-rule="evenodd" d="M1228.15 80.6688C1222.21 81.9277 1217.5 86.6948 1216.19 92.7696C1215.84 94.3541 1215.85 97.5631 1216.2 99.1614C1217.47 104.938 1221.81 109.492 1227.55 111.071C1228.69 111.386 1229.36 111.449 1231.58 111.446C1233.98 111.444 1234.39 111.398 1235.77 110.977C1240.12 109.652 1243.51 106.831 1245.47 102.894C1246.69 100.449 1247.09 98.6829 1247.07 95.7745C1247.06 93.0835 1246.75 91.6557 1245.67 89.349C1244.82 87.5498 1244.19 86.6186 1242.76 85.1104C1240.67 82.8908 1237.68 81.2367 1234.63 80.6079C1232.88 80.2476 1230.01 80.2747 1228.15 80.6688ZM1212.44 108.855C1214.29 113.032 1218 116.865 1222.28 119.005C1227.46 121.597 1233.8 121.856 1239.22 119.696C1243.85 117.855 1247.83 114.22 1250.16 109.714C1250.6 108.857 1250.96 108.109 1250.96 108.051C1250.96 107.992 1250.36 108.456 1249.63 109.081C1246.17 112.039 1242.06 114.014 1237.24 115.035C1235.66 115.369 1234.93 115.416 1231.41 115.41C1227.9 115.405 1227.16 115.355 1225.69 115.028C1220.72 113.915 1216.01 111.58 1213.07 108.764C1212.61 108.319 1212.19 107.954 1212.13 107.954C1212.08 107.954 1212.22 108.36 1212.44 108.855ZM1222.89 128.413C1222.95 131.172 1223.05 135.243 1223.11 137.461L1223.22 141.493L1225.98 141.037C1229.46 140.463 1233.45 140.059 1237.02 139.918L1239.79 139.809L1239.88 139.192C1239.93 138.853 1240.02 135.161 1240.08 130.988L1240.19 123.401L1239 123.816C1236.59 124.659 1234.46 124.993 1231.49 124.993C1228.52 124.993 1226.57 124.688 1224.05 123.83L1222.78 123.398L1222.89 128.413ZM1255.68 143.138C1254.92 143.216 1253.74 143.406 1253.05 143.559C1251.93 143.806 1251.28 143.814 1247.13 143.639C1236.47 143.188 1226.13 144.271 1218.2 146.669C1212.15 148.496 1206.67 151.271 1202.56 154.583C1200.77 156.034 1198.1 158.865 1196.71 160.804C1195.28 162.798 1193.19 166.948 1192.39 169.409C1191.25 172.883 1190.58 177.109 1190.58 180.846C1190.58 190.045 1194.51 199.065 1201.58 206.089C1205.46 209.95 1209.97 212.976 1216.74 216.273C1220.15 217.935 1221.09 218.348 1221.18 218.238C1221.22 218.202 1221.14 214.505 1221.01 210.024C1220.89 205.542 1220.78 201.433 1220.78 200.891C1220.77 199.926 1220.76 199.899 1220.04 199.434C1213.49 195.18 1209.8 190.756 1208.54 185.664C1206.93 179.124 1208.74 172.685 1213.3 168.754C1218.9 163.921 1229.02 161.137 1241.02 161.134L1243.68 161.133L1244.54 162.005C1246.01 163.512 1247.91 164.942 1249.33 165.61C1253.61 167.618 1263.03 169.028 1270.66 168.802C1276.7 168.624 1280.26 167.652 1281.33 165.887C1283.16 162.883 1276.4 152.45 1269.04 146.914C1264.66 143.624 1260.99 142.586 1255.68 143.138ZM1264.59 151.845C1263.83 152.198 1263.31 153.014 1263.31 153.869C1263.32 154.93 1264.45 155.988 1265.58 155.986C1266.1 155.985 1267 155.424 1267.36 154.875C1267.73 154.311 1267.73 153.208 1267.37 152.65C1266.72 151.666 1265.65 151.354 1264.59 151.845ZM1235.61 165.096C1231.9 165.399 1227.7 166.135 1224.84 166.983L1223.67 167.329L1223.77 170.278C1223.83 171.9 1224.02 179.596 1224.21 187.38C1224.98 219.669 1226.02 258.391 1226.12 258.494C1226.23 258.595 1232.03 255.897 1234.92 254.402L1236.98 253.339L1237.1 250.68C1237.16 249.218 1237.34 243.196 1237.49 237.3C1237.64 231.403 1237.88 222.332 1238.01 217.143C1238.15 211.954 1238.46 199.911 1238.69 190.382C1238.92 180.853 1239.16 171.222 1239.22 168.982L1239.34 164.907L1238.33 164.931C1237.78 164.945 1236.55 165.019 1235.61 165.096ZM1281.94 168.638C1282.23 170.229 1283.31 172.13 1284.36 172.904C1285.43 173.693 1286.31 174.002 1288.17 174.248C1290.35 174.533 1290.55 174.617 1291.68 175.692L1292.52 176.487L1292.42 175.493C1292.24 173.557 1291.19 172.556 1288.72 171.944C1286.55 171.409 1285.08 170.649 1283.45 169.217C1282.68 168.545 1282 167.995 1281.94 167.995C1281.88 167.995 1281.88 168.285 1281.94 168.638ZM1241.81 215.985C1241.75 218.792 1241.65 222.594 1241.59 224.434L1241.48 227.779L1243.59 229.151C1247.23 231.524 1249.59 234.248 1250.56 237.191C1251.19 239.123 1251.23 241.613 1250.64 243.471C1249.91 245.828 1248.81 247.651 1246.93 249.631C1243.77 252.963 1239.32 255.63 1228.9 260.428C1220.21 264.429 1216.28 266.589 1212.39 269.499C1209.99 271.298 1206.98 274.275 1205.66 276.156C1201.75 281.715 1200.6 288.18 1202.51 293.865C1204.65 300.265 1210.46 305.3 1221.17 310.033C1222.48 310.611 1223.58 311.06 1223.6 311.031C1223.63 311.002 1223.59 308.701 1223.51 305.918C1223.43 303.134 1223.36 300.382 1223.35 299.8L1223.34 298.743L1221.67 297.85C1216.42 295.046 1213.79 292.28 1213.6 289.37C1213.45 286.936 1214.42 284.688 1216.62 282.383C1219.73 279.129 1223.41 277.036 1235.27 271.772C1243.37 268.176 1246.74 266.448 1250.59 263.932C1258.34 258.855 1263.09 252.555 1264.69 245.207C1267.27 233.369 1261.84 222.831 1249.01 214.822C1247.26 213.729 1242.22 210.883 1242.03 210.882C1241.97 210.882 1241.87 213.178 1241.81 215.985ZM1232.94 275.879C1231.11 276.71 1228.93 277.722 1228.1 278.127L1226.6 278.863L1226.6 280.168C1226.6 280.885 1226.72 285.873 1226.86 291.251C1227.2 304.255 1227.77 328.387 1227.89 334.909C1227.94 337.787 1228.03 340.846 1228.08 341.708L1228.18 343.276L1231.21 341.866C1232.87 341.091 1234.36 340.411 1234.52 340.354C1234.9 340.215 1234.94 339.347 1235.27 324.102C1235.41 317.167 1235.72 304.005 1235.95 294.853C1236.47 273.878 1236.46 274.546 1236.36 274.449C1236.32 274.405 1234.78 275.048 1232.94 275.879ZM1239.4 309.396C1239.35 310.738 1239.27 313.23 1239.24 314.934L1239.17 318.031L1240.74 318.99C1242.98 320.362 1244.2 321.321 1245.68 322.865C1250.06 327.452 1250.24 332.45 1246.17 336.585C1244.07 338.716 1241.5 340.28 1236.06 342.74C1222.26 348.98 1215.7 353.664 1212.63 359.467C1211.4 361.806 1211.08 363.087 1211.08 365.701C1211.08 367.752 1211.36 369.736 1211.65 369.731C1211.71 369.73 1211.97 369.17 1212.23 368.487C1213.03 366.37 1214.29 364.518 1216.38 362.429C1220.03 358.786 1223.74 356.762 1233.98 352.84C1239.6 350.686 1242 349.687 1244.35 348.514C1253.22 344.084 1257.25 338.694 1257.75 330.598C1258.2 323.154 1254.06 316.417 1245.39 310.512C1243.65 309.326 1241.26 307.866 1240.02 307.223L1239.5 306.957L1239.4 309.396ZM1231.41 356.846L1228.58 357.998L1228.62 363.908C1228.65 367.159 1228.74 373.454 1228.82 377.897C1228.96 385.523 1228.98 386.021 1229.32 386.781C1229.59 387.384 1229.83 387.648 1230.28 387.837C1231.7 388.429 1233.14 387.969 1233.68 386.75C1233.99 386.031 1234.03 385.258 1234.25 373.614C1234.52 359.264 1234.54 355.661 1234.37 355.68C1234.29 355.688 1232.96 356.213 1231.41 356.846Z" fill="#E59F14"/>
<path d="M1412.8 209.549C1407.21 209.549 1402.31 208.691 1398.12 206.975C1393.95 205.227 1390.49 202.763 1387.73 199.585C1384.99 196.407 1382.94 192.625 1381.58 188.239C1380.21 183.853 1379.53 179.022 1379.53 173.746C1379.53 168.089 1380.35 162.988 1382 158.443C1383.69 153.898 1386.06 150.021 1389.11 146.811C1392.16 143.569 1395.78 141.09 1399.98 139.374C1404.17 137.658 1408.78 136.799 1413.8 136.799C1416.5 136.799 1418.86 136.942 1420.86 137.229C1422.86 137.515 1424.67 137.848 1426.29 138.23C1427.91 138.579 1429.49 138.897 1431.01 139.183C1432.54 139.469 1434.16 139.628 1435.88 139.66L1434.16 159.254H1425.86L1423.34 145.142C1423.02 144.443 1422.46 143.76 1421.67 143.092C1420.91 142.425 1419.89 141.885 1418.62 141.471C1417.35 141.027 1415.77 140.804 1413.9 140.804C1410.21 140.804 1407.05 141.964 1404.41 144.284C1401.77 146.604 1399.75 150.1 1398.36 154.772C1396.96 159.444 1396.26 165.34 1396.26 172.459C1396.26 176.845 1396.58 181.04 1397.21 185.045C1397.88 189.049 1398.91 192.593 1400.31 195.676C1401.74 198.759 1403.6 201.19 1405.89 202.97C1408.21 204.75 1411.01 205.64 1414.28 205.64C1416.09 205.64 1417.66 205.354 1419 204.782C1420.33 204.21 1421.45 203.51 1422.34 202.684C1423.23 201.826 1423.93 201.015 1424.43 200.253L1428.53 188.287L1435.45 188.954L1433.59 205.973C1432.22 206.005 1430.93 206.212 1429.73 206.593C1428.55 206.975 1427.25 207.404 1425.82 207.88C1424.39 208.325 1422.64 208.707 1420.57 209.025C1418.51 209.374 1415.92 209.549 1412.8 209.549ZM1475.82 209.358C1469.59 209.358 1464.36 208.421 1460.14 206.546C1455.94 204.639 1452.78 201.651 1450.65 197.583C1448.52 193.483 1447.46 188.144 1447.46 181.565V142.568L1441.02 141.042V137.705H1470.15V141.042L1462.62 142.616V183.901C1462.62 187.842 1462.93 191.179 1463.57 193.912C1464.24 196.645 1465.19 198.854 1466.43 200.539C1467.67 202.223 1469.18 203.447 1470.96 204.21C1472.77 204.972 1474.84 205.354 1477.16 205.354C1480.56 205.354 1483.5 204.448 1485.98 202.636C1488.46 200.793 1490.38 198.091 1491.74 194.532C1493.11 190.94 1493.78 186.523 1493.75 181.279L1493.51 142.616L1486.26 141.042V137.705H1505.81V141.042L1499.71 142.568L1499.37 180.945C1499.37 186.094 1498.75 190.48 1497.51 194.103C1496.31 197.694 1494.62 200.618 1492.46 202.875C1490.33 205.099 1487.84 206.736 1484.98 207.785C1482.15 208.834 1479.1 209.358 1475.82 209.358ZM1509.54 208.548V205.258L1516.4 203.876V142.568L1509.68 141.042V137.705H1523.17C1525.08 137.705 1526.83 137.658 1528.42 137.562C1530 137.435 1531.61 137.324 1533.23 137.229C1534.88 137.101 1536.71 137.038 1538.71 137.038C1545.32 137.038 1550.58 137.753 1554.49 139.183C1558.4 140.582 1561.2 142.679 1562.88 145.476C1564.6 148.241 1565.46 151.658 1565.46 155.726C1565.46 158.459 1564.92 161.192 1563.84 163.926C1562.79 166.659 1561.2 169.09 1559.07 171.22C1556.97 173.317 1554.3 174.843 1551.06 175.796C1552.97 176.305 1554.68 177.322 1556.21 178.847C1557.73 180.373 1559.12 182.169 1560.36 184.234C1561.6 186.3 1562.71 188.446 1563.69 190.67C1564.71 192.863 1565.63 194.945 1566.46 196.916C1567.29 198.886 1568.05 200.523 1568.75 201.826C1569.45 203.129 1570.13 203.908 1570.8 204.162L1573.71 205.258V208.548H1556.73C1555.97 208.548 1555.18 207.865 1554.35 206.498C1553.56 205.131 1552.73 203.351 1551.87 201.158C1551.01 198.966 1550.11 196.614 1549.15 194.103C1548.23 191.592 1547.26 189.177 1546.25 186.856C1545.23 184.536 1544.16 182.566 1543.05 180.945C1541.97 179.324 1540.81 178.323 1539.57 177.942C1538.94 177.942 1538.24 177.942 1537.47 177.942C1536.71 177.942 1535.93 177.942 1535.14 177.942C1534.37 177.942 1533.63 177.942 1532.9 177.942C1532.17 177.91 1531.53 177.894 1530.99 177.894V203.876L1539.09 205.258V208.548H1509.54ZM1538.62 173.985C1541.13 173.985 1543.24 173.285 1544.96 171.887C1546.67 170.489 1547.96 168.486 1548.82 165.88C1549.71 163.242 1550.15 160.096 1550.15 156.441C1550.15 153.231 1549.74 150.466 1548.91 148.146C1548.09 145.826 1546.74 144.046 1544.86 142.806C1543.02 141.567 1540.56 140.947 1537.47 140.947C1536.27 140.947 1535.26 140.979 1534.47 141.042C1533.71 141.106 1533.06 141.185 1532.52 141.281C1532.01 141.376 1531.5 141.456 1530.99 141.519V173.651C1531.63 173.778 1532.44 173.873 1533.42 173.937C1534.41 173.969 1535.38 173.985 1536.33 173.985C1537.31 173.985 1538.08 173.985 1538.62 173.985ZM1600.88 209.597C1597.07 209.597 1593.62 209.247 1590.54 208.548C1587.49 207.88 1584.88 207.213 1582.72 206.546C1580.56 205.846 1578.95 205.449 1577.9 205.354L1579.29 188.144H1587.06L1589.3 201.397C1589.9 202.064 1590.73 202.716 1591.78 203.351C1592.83 203.987 1594.08 204.527 1595.54 204.972C1597.04 205.386 1598.72 205.608 1600.6 205.64C1603.96 205.64 1606.67 205.147 1608.7 204.162C1610.77 203.145 1612.28 201.794 1613.23 200.11C1614.18 198.425 1614.66 196.582 1614.66 194.58C1614.66 192.037 1613.88 189.844 1612.32 188.001C1610.77 186.125 1608.68 184.409 1606.08 182.852C1603.47 181.295 1600.58 179.737 1597.4 178.18C1595.46 177.226 1593.41 176.146 1591.25 174.938C1589.12 173.699 1587.1 172.237 1585.2 170.552C1583.29 168.836 1581.73 166.786 1580.53 164.402C1579.35 162.019 1578.76 159.19 1578.76 155.916C1578.76 152.579 1579.7 149.449 1581.57 146.525C1583.48 143.601 1586.29 141.249 1590.01 139.469C1593.76 137.658 1598.39 136.752 1603.89 136.752C1606.55 136.72 1608.97 136.879 1611.13 137.229C1613.29 137.546 1615.22 137.928 1616.9 138.373C1618.58 138.818 1620.01 139.231 1621.19 139.612C1622.37 139.962 1623.29 140.168 1623.96 140.232L1622.67 156.489H1615.18L1613.04 143.712C1612.72 143.299 1612.15 142.854 1611.32 142.377C1610.5 141.901 1609.43 141.503 1608.13 141.185C1606.86 140.836 1605.39 140.677 1603.74 140.709C1601.01 140.709 1598.72 141.17 1596.88 142.091C1595.03 142.981 1593.65 144.205 1592.73 145.762C1591.81 147.319 1591.35 149.067 1591.35 151.006C1591.35 153.803 1592.13 156.123 1593.68 157.966C1595.27 159.81 1597.34 161.447 1599.88 162.877C1602.46 164.275 1605.2 165.737 1608.13 167.263C1610.23 168.312 1612.42 169.487 1614.71 170.791C1617 172.094 1619.12 173.603 1621.1 175.32C1623.1 177.004 1624.72 178.959 1625.96 181.183C1627.2 183.408 1627.82 185.982 1627.82 188.906C1627.82 191.417 1627.34 193.896 1626.39 196.343C1625.43 198.791 1623.91 201.015 1621.81 203.018C1619.71 205.02 1616.95 206.625 1613.52 207.833C1610.08 209.009 1605.87 209.597 1600.88 209.597ZM1664.69 209.692C1657.41 209.724 1651.46 208.23 1646.82 205.211C1642.21 202.16 1638.81 197.933 1636.61 192.53C1634.42 187.127 1633.32 180.913 1633.32 173.889C1633.32 168.359 1634.04 163.322 1635.47 158.777C1636.93 154.232 1639.06 150.323 1641.86 147.049C1644.65 143.744 1648.07 141.201 1652.11 139.422C1656.14 137.642 1660.77 136.752 1665.98 136.752C1673.19 136.752 1679.09 138.23 1683.67 141.185C1688.27 144.109 1691.66 148.209 1693.82 153.485C1696.01 158.761 1697.11 164.927 1697.11 171.982C1697.11 177.513 1696.4 182.582 1694.97 187.19C1693.53 191.767 1691.42 195.74 1688.62 199.109C1685.86 202.446 1682.46 205.036 1678.42 206.879C1674.42 208.723 1669.84 209.66 1664.69 209.692ZM1665.17 205.83C1668.41 205.83 1671.19 204.559 1673.51 202.017C1675.86 199.474 1677.68 195.692 1678.95 190.67C1680.22 185.649 1680.85 179.419 1680.85 171.982C1680.85 165.403 1680.27 159.778 1679.09 155.106C1677.95 150.402 1676.21 146.811 1673.89 144.332C1671.61 141.821 1668.74 140.566 1665.31 140.566C1662.04 140.566 1659.23 141.789 1656.87 144.237C1654.52 146.684 1652.71 150.37 1651.44 155.297C1650.2 160.223 1649.58 166.405 1649.58 173.842C1649.58 180.516 1650.15 186.237 1651.3 191.004C1652.47 195.771 1654.2 199.442 1656.49 202.017C1658.81 204.559 1661.71 205.83 1665.17 205.83ZM1751.1 209.692C1743.82 209.724 1737.86 208.23 1733.22 205.211C1728.61 202.16 1725.21 197.933 1723.02 192.53C1720.83 187.127 1719.73 180.913 1719.73 173.889C1719.73 168.359 1720.45 163.322 1721.88 158.777C1723.34 154.232 1725.47 150.323 1728.26 147.049C1731.06 143.744 1734.48 141.201 1738.51 139.422C1742.55 137.642 1747.18 136.752 1752.39 136.752C1759.6 136.752 1765.5 138.23 1770.07 141.185C1774.68 144.109 1778.07 148.209 1780.23 153.485C1782.42 158.761 1783.52 164.927 1783.52 171.982C1783.52 177.513 1782.8 182.582 1781.37 187.19C1779.94 191.767 1777.83 195.74 1775.03 199.109C1772.27 202.446 1768.87 205.036 1764.83 206.879C1760.83 208.723 1756.25 209.66 1751.1 209.692ZM1751.58 205.83C1754.82 205.83 1757.6 204.559 1759.92 202.017C1762.27 199.474 1764.08 195.692 1765.35 190.67C1766.63 185.649 1767.26 179.419 1767.26 171.982C1767.26 165.403 1766.67 159.778 1765.5 155.106C1764.35 150.402 1762.62 146.811 1760.3 144.332C1758.01 141.821 1755.15 140.566 1751.72 140.566C1748.45 140.566 1745.63 141.789 1743.28 144.237C1740.93 146.684 1739.12 150.37 1737.85 155.297C1736.61 160.223 1735.99 166.405 1735.99 173.842C1735.99 180.516 1736.56 186.237 1737.7 191.004C1738.88 195.771 1740.61 199.442 1742.9 202.017C1745.22 204.559 1748.11 205.83 1751.58 205.83ZM1787.17 208.548V205.306L1794.32 203.399L1794.85 145.81C1794.34 145.079 1793.66 144.364 1792.8 143.664C1791.94 142.965 1791.02 142.377 1790.03 141.901C1789.08 141.424 1788.14 141.138 1787.22 141.042V137.705H1808.15L1836.13 181.708L1841.66 192.291L1841.19 142.997L1833.42 141.042V137.705H1854.58V141.042L1847.29 142.997L1846.86 208.548H1836.23L1805.43 160.445L1800.04 150.482L1800.43 203.399L1808.96 205.306V208.548H1787.17ZM1858.99 208.548V205.258L1865.85 203.781V142.616L1859.08 141.042V137.705H1888.97V141.042L1880.73 142.616V204.162L1900.03 202.303L1906.95 185.617L1913.91 186.523L1910.71 208.548H1858.99ZM1924.29 203.876V142.616L1917 141.042V137.705H1946.08V141.042L1938.74 142.616V203.924L1946.13 205.306V208.548H1917V205.258L1924.29 203.876ZM1951.79 208.548V205.306L1958.95 203.399L1959.47 145.81C1958.96 145.079 1958.28 144.364 1957.42 143.664C1956.56 142.965 1955.64 142.377 1954.65 141.901C1953.7 141.424 1952.76 141.138 1951.84 141.042V137.705H1972.77L2000.75 181.708L2006.28 192.291L2005.81 142.997L1998.04 141.042V137.705H2019.2V141.042L2011.91 142.997L2011.48 208.548H2000.85L1970.05 160.445L1964.67 150.482L1965.05 203.399L1973.58 205.306V208.548H1951.79ZM2030.52 203.781V142.616L2023.66 141.042V137.705H2074.86L2076.29 154.343H2070.42L2065.51 142.854L2045.44 141.614V170.171L2058.03 169.742L2060.79 159.969H2064.61V184.854H2060.79L2058.08 174.557L2045.44 174.128V204.543L2067.61 202.589L2074.62 188.144L2080.82 189.717L2077.29 208.548H2023.66V205.258L2030.52 203.781ZM2131.46 209.311C2130.25 209.279 2128.92 209.215 2127.46 209.12C2125.99 209.056 2124.52 208.977 2123.02 208.882C2121.56 208.786 2120.16 208.707 2118.83 208.643C2117.52 208.58 2116.4 208.548 2115.44 208.548H2102.38V205.258L2109.29 203.781V142.616L2102.57 141.042V137.705H2115.2C2117.14 137.705 2119.11 137.658 2121.12 137.562C2123.12 137.435 2125.12 137.324 2127.12 137.229C2129.13 137.133 2131.06 137.086 2132.94 137.086C2139.23 137.086 2144.56 137.896 2148.91 139.517C2153.3 141.138 2156.84 143.458 2159.54 146.477C2162.27 149.465 2164.26 153.024 2165.5 157.156C2166.74 161.256 2167.36 165.801 2167.36 170.791C2167.36 176.48 2166.56 181.708 2164.98 186.475C2163.39 191.211 2161.05 195.311 2157.97 198.775C2154.92 202.207 2151.17 204.861 2146.72 206.736C2142.3 208.58 2137.21 209.438 2131.46 209.311ZM2131.41 205.163C2135.51 205.099 2139.04 203.86 2142 201.445C2144.95 199.029 2147.23 195.438 2148.81 190.67C2150.44 185.871 2151.25 179.896 2151.25 172.745C2151.25 167.914 2150.86 163.56 2150.1 159.683C2149.34 155.805 2148.15 152.484 2146.53 149.719C2144.91 146.954 2142.81 144.824 2140.23 143.331C2137.66 141.837 2134.56 141.09 2130.94 141.09C2129.92 141.09 2128.95 141.154 2128.03 141.281C2127.14 141.376 2126.34 141.487 2125.65 141.614C2124.95 141.742 2124.41 141.821 2124.02 141.853V204.162C2124.76 204.416 2125.53 204.623 2126.36 204.782C2127.19 204.941 2128.03 205.052 2128.89 205.115C2129.75 205.147 2130.59 205.163 2131.41 205.163ZM2178.38 203.781V142.616L2171.52 141.042V137.705H2222.72L2224.15 154.343H2218.29L2213.37 142.854L2193.3 141.614V170.171L2205.89 169.742L2208.66 159.969H2212.47V184.854H2208.66L2205.94 174.557L2193.3 174.128V204.543L2215.47 202.589L2222.48 188.144L2228.68 189.717L2225.15 208.548H2171.52V205.258L2178.38 203.781Z" fill="#E59F14"/>
<path d="M1380.53 328.548V325.926L1388.06 324.639V261.567L1380.77 260.28V257.705H1391.21C1392.89 257.705 1394.57 257.642 1396.26 257.515C1397.94 257.387 1399.63 257.26 1401.31 257.133C1403 257.006 1404.67 256.942 1406.32 256.942C1412.39 256.942 1417.19 257.721 1420.72 259.278C1424.24 260.804 1426.75 262.965 1428.25 265.762C1429.74 268.527 1430.49 271.769 1430.49 275.487C1430.49 278.634 1429.85 281.59 1428.58 284.355C1427.34 287.12 1425.58 289.487 1423.29 291.458C1421.03 293.428 1418.32 294.811 1415.14 295.606C1416.41 296.019 1417.66 296.972 1418.9 298.466C1420.18 299.928 1421.43 301.692 1422.67 303.758C1423.91 305.824 1425.09 307.985 1426.2 310.241C1427.31 312.498 1428.37 314.643 1429.39 316.677C1430.44 318.711 1431.41 320.427 1432.3 321.826C1433.19 323.193 1433.98 324.019 1434.68 324.305L1438.78 325.926V328.548H1428.39C1427.69 328.548 1426.87 327.817 1425.91 326.355C1424.99 324.861 1423.99 322.938 1422.91 320.586C1421.83 318.235 1420.68 315.724 1419.48 313.054C1418.3 310.353 1417.08 307.794 1415.8 305.379C1414.53 302.963 1413.25 300.961 1411.94 299.372C1410.67 297.751 1409.4 296.845 1408.13 296.654C1407.4 296.654 1406.41 296.654 1405.17 296.654C1403.97 296.623 1402.71 296.607 1401.41 296.607C1400.1 296.575 1398.91 296.543 1397.83 296.511C1396.78 296.48 1396.04 296.448 1395.59 296.416V324.639L1405.36 325.926V328.548H1380.53ZM1406.17 293.365C1409.8 293.365 1412.8 292.729 1415.19 291.458C1417.57 290.155 1419.35 288.216 1420.52 285.642C1421.7 283.036 1422.29 279.794 1422.29 275.916C1422.29 272.579 1421.76 269.751 1420.72 267.431C1419.67 265.079 1417.9 263.299 1415.42 262.091C1412.94 260.852 1409.58 260.232 1405.32 260.232C1403.76 260.232 1402.36 260.296 1401.12 260.423C1399.91 260.518 1398.85 260.629 1397.93 260.756C1397.01 260.883 1396.23 260.979 1395.59 261.042V292.841C1396.67 292.968 1397.88 293.079 1399.21 293.174C1400.58 293.238 1401.88 293.285 1403.12 293.317C1404.4 293.349 1405.41 293.365 1406.17 293.365ZM1447.17 324.686L1470.81 257.038H1478.3L1500.18 324.591L1506.38 325.926V328.548H1484.64V325.926L1491.74 324.591L1486.35 307.333H1458.27L1453.03 324.591L1460.18 325.926V328.548H1441.16V325.926L1447.17 324.686ZM1485.07 303.472L1474.91 270.005L1472.86 262.854L1470.53 270.1L1459.47 303.472H1485.07ZM1537.03 329.549C1532.01 329.549 1527.54 328.659 1523.63 326.879C1519.75 325.099 1516.48 322.605 1513.81 319.395C1511.17 316.185 1509.17 312.402 1507.8 308.048C1506.47 303.694 1505.8 298.943 1505.8 293.794C1505.8 288.391 1506.64 283.433 1508.33 278.92C1510.01 274.407 1512.36 270.514 1515.38 267.24C1518.43 263.935 1521.99 261.376 1526.06 259.565C1530.16 257.753 1534.63 256.847 1539.46 256.847C1542.03 256.847 1544.34 256.99 1546.37 257.276C1548.41 257.562 1550.22 257.896 1551.81 258.277C1553.39 258.659 1554.79 259.008 1556 259.326C1557.21 259.644 1558.23 259.835 1559.05 259.898L1558.29 275.583H1553.38L1551.62 263.235C1551.04 262.727 1550.17 262.234 1548.99 261.758C1547.85 261.281 1546.43 260.899 1544.75 260.613C1543.1 260.296 1541.22 260.137 1539.12 260.137C1534.04 260.137 1529.64 261.44 1525.92 264.046C1522.2 266.652 1519.32 270.386 1517.29 275.249C1515.26 280.08 1514.24 285.864 1514.24 292.602C1514.24 296.893 1514.67 301.056 1515.53 305.093C1516.42 309.129 1517.8 312.752 1519.67 315.962C1521.58 319.14 1524.06 321.667 1527.11 323.542C1530.19 325.417 1533.94 326.355 1538.36 326.355C1540.71 326.355 1542.72 326.117 1544.37 325.64C1546.02 325.131 1547.4 324.512 1548.52 323.781C1549.66 323.018 1550.65 322.255 1551.47 321.492L1555.14 312.101L1559.24 312.911L1557.15 325.973C1555.91 326.005 1554.71 326.212 1553.57 326.593C1552.46 326.943 1551.2 327.356 1549.8 327.833C1548.41 328.278 1546.69 328.675 1544.65 329.025C1542.62 329.374 1540.08 329.549 1537.03 329.549ZM1573.68 324.686V261.614L1566.1 260.327V257.705H1588.79V260.327L1581.21 261.614V324.686L1588.79 325.926V328.548H1566.1V325.926L1573.68 324.686ZM1623 329.597C1616.48 329.628 1611 328.135 1606.55 325.115C1602.1 322.064 1598.73 317.853 1596.44 312.482C1594.15 307.079 1593.01 300.881 1593.01 293.889C1593.01 287.978 1593.81 282.75 1595.39 278.205C1597.02 273.628 1599.26 269.767 1602.12 266.62C1605.01 263.442 1608.38 261.042 1612.22 259.422C1616.07 257.769 1620.2 256.942 1624.62 256.942C1631.04 256.942 1636.44 258.404 1640.83 261.328C1645.24 264.221 1648.6 268.305 1650.89 273.58C1653.17 278.856 1654.32 285.07 1654.32 292.221C1654.32 298.1 1653.51 303.345 1651.89 307.953C1650.3 312.561 1648.07 316.471 1645.21 319.681C1642.38 322.891 1639.06 325.338 1635.25 327.022C1631.47 328.707 1627.38 329.565 1623 329.597ZM1623.47 326.403C1627.96 326.403 1631.88 325.131 1635.25 322.589C1638.62 320.046 1641.22 316.248 1643.07 311.195C1644.94 306.141 1645.88 299.817 1645.88 292.221C1645.88 286.023 1645.04 280.509 1643.35 275.678C1641.7 270.847 1639.22 267.049 1635.92 264.284C1632.61 261.519 1628.56 260.137 1623.76 260.137C1619.28 260.137 1615.35 261.376 1611.98 263.855C1608.62 266.302 1606.01 270.021 1604.17 275.011C1602.32 280 1601.4 286.293 1601.4 293.889C1601.4 300.468 1602.23 306.205 1603.88 311.099C1605.56 315.962 1608.04 319.728 1611.32 322.398C1614.59 325.068 1618.64 326.403 1623.47 326.403ZM1695.04 329.549C1690.02 329.549 1685.55 328.659 1681.64 326.879C1677.76 325.099 1674.49 322.605 1671.82 319.395C1669.18 316.185 1667.18 312.402 1665.81 308.048C1664.48 303.694 1663.81 298.943 1663.81 293.794C1663.81 288.391 1664.65 283.433 1666.34 278.92C1668.02 274.407 1670.38 270.514 1673.39 267.24C1676.45 263.935 1680.01 261.376 1684.07 259.565C1688.17 257.753 1692.64 256.847 1697.47 256.847C1700.04 256.847 1702.35 256.99 1704.38 257.276C1706.42 257.562 1708.23 257.896 1709.82 258.277C1711.41 258.659 1712.8 259.008 1714.01 259.326C1715.22 259.644 1716.24 259.835 1717.06 259.898L1716.3 275.583H1711.39L1709.63 263.235C1709.05 262.727 1708.18 262.234 1707 261.758C1705.86 261.281 1704.45 260.899 1702.76 260.613C1701.11 260.296 1699.23 260.137 1697.14 260.137C1692.05 260.137 1687.65 261.44 1683.93 264.046C1680.21 266.652 1677.34 270.386 1675.3 275.249C1673.27 280.08 1672.25 285.864 1672.25 292.602C1672.25 296.893 1672.68 301.056 1673.54 305.093C1674.43 309.129 1675.81 312.752 1677.69 315.962C1679.59 319.14 1682.07 321.667 1685.12 323.542C1688.2 325.417 1691.96 326.355 1696.37 326.355C1698.72 326.355 1700.73 326.117 1702.38 325.64C1704.03 325.131 1705.42 324.512 1706.53 323.781C1707.67 323.018 1708.66 322.255 1709.48 321.492L1713.15 312.101L1717.25 312.911L1715.16 325.973C1713.92 326.005 1712.72 326.212 1711.58 326.593C1710.47 326.943 1709.21 327.356 1707.81 327.833C1706.42 328.278 1704.7 328.675 1702.67 329.025C1700.63 329.374 1698.09 329.549 1695.04 329.549ZM1731.69 324.686V261.614L1724.11 260.327V257.705H1746.8V260.327L1739.22 261.614V324.686L1746.8 325.926V328.548H1724.11V325.926L1731.69 324.686ZM1734.98 252.175L1733.12 250.507L1745.09 234.774L1750.71 239.637C1749.98 240.622 1748.98 241.735 1747.71 242.974C1746.44 244.182 1745.06 245.39 1743.56 246.597C1742.07 247.805 1740.58 248.902 1739.08 249.887C1737.62 250.84 1736.28 251.603 1735.08 252.175H1734.98ZM1752.14 328.548V325.926L1758.91 324.639L1759.43 262.759C1759.05 262.504 1758.45 262.218 1757.62 261.901C1756.79 261.583 1755.89 261.281 1754.9 260.995C1753.95 260.709 1753.03 260.486 1752.14 260.327V257.705H1766.82L1799 308.334L1805.2 319.871L1804.67 261.662L1797.04 260.327V257.705H1816.88V260.327L1809.73 261.662L1809.15 328.548H1803.1L1769.82 276.25L1763.39 265.095L1763.96 324.686L1771.83 325.926V328.548H1752.14ZM1828.53 324.686V261.614L1820.95 260.327V257.705H1843.64V260.327L1836.06 261.614V324.686L1843.64 325.926V328.548H1820.95V325.926L1828.53 324.686ZM1877.84 329.597C1871.33 329.628 1865.85 328.135 1861.4 325.115C1856.95 322.064 1853.58 317.853 1851.29 312.482C1849 307.079 1847.86 300.881 1847.86 293.889C1847.86 287.978 1848.65 282.75 1850.24 278.205C1851.86 273.628 1854.1 269.767 1856.96 266.62C1859.86 263.442 1863.22 261.042 1867.07 259.422C1870.92 257.769 1875.05 256.942 1879.47 256.942C1885.89 256.942 1891.29 258.404 1895.67 261.328C1900.09 264.221 1903.45 268.305 1905.73 273.58C1908.02 278.856 1909.17 285.07 1909.17 292.221C1909.17 298.1 1908.36 303.345 1906.73 307.953C1905.15 312.561 1902.92 316.471 1900.06 319.681C1897.23 322.891 1893.91 325.338 1890.1 327.022C1886.31 328.707 1882.23 329.565 1877.84 329.597ZM1878.32 326.403C1882.8 326.403 1886.73 325.131 1890.1 322.589C1893.47 320.046 1896.07 316.248 1897.92 311.195C1899.79 306.141 1900.73 299.817 1900.73 292.221C1900.73 286.023 1899.89 280.509 1898.2 275.678C1896.55 270.847 1894.07 267.049 1890.76 264.284C1887.46 261.519 1883.41 260.137 1878.61 260.137C1874.13 260.137 1870.2 261.376 1866.83 263.855C1863.46 266.302 1860.86 270.021 1859.01 275.011C1857.17 280 1856.25 286.293 1856.25 293.889C1856.25 300.468 1857.07 306.205 1858.73 311.099C1860.41 315.962 1862.89 319.728 1866.16 322.398C1869.44 325.068 1873.49 326.403 1878.32 326.403ZM1962.92 329.549C1957.9 329.549 1953.43 328.659 1949.53 326.879C1945.65 325.099 1942.37 322.605 1939.7 319.395C1937.07 316.185 1935.06 312.402 1933.7 308.048C1932.36 303.694 1931.7 298.943 1931.7 293.794C1931.7 288.391 1932.54 283.433 1934.22 278.92C1935.91 274.407 1938.26 270.514 1941.28 267.24C1944.33 263.935 1947.89 261.376 1951.96 259.565C1956.06 257.753 1960.52 256.847 1965.35 256.847C1967.93 256.847 1970.23 256.99 1972.27 257.276C1974.3 257.562 1976.11 257.896 1977.7 258.277C1979.29 258.659 1980.69 259.008 1981.9 259.326C1983.1 259.644 1984.12 259.835 1984.95 259.898L1984.18 275.583H1979.27L1977.51 263.235C1976.94 262.727 1976.06 262.234 1974.89 261.758C1973.74 261.281 1972.33 260.899 1970.64 260.613C1968.99 260.296 1967.12 260.137 1965.02 260.137C1959.93 260.137 1955.53 261.44 1951.81 264.046C1948.09 266.652 1945.22 270.386 1943.18 275.249C1941.15 280.08 1940.13 285.864 1940.13 292.602C1940.13 296.893 1940.56 301.056 1941.42 305.093C1942.31 309.129 1943.69 312.752 1945.57 315.962C1947.48 319.14 1949.95 321.667 1953.01 323.542C1956.09 325.417 1959.84 326.355 1964.26 326.355C1966.61 326.355 1968.61 326.117 1970.26 325.64C1971.92 325.131 1973.3 324.512 1974.41 323.781C1975.55 323.018 1976.54 322.255 1977.37 321.492L1981.04 312.101L1985.14 312.911L1983.04 325.973C1981.8 326.005 1980.61 326.212 1979.46 326.593C1978.35 326.943 1977.1 327.356 1975.7 327.833C1974.3 328.278 1972.58 328.675 1970.55 329.025C1968.52 329.374 1965.97 329.549 1962.92 329.549ZM1991.9 328.548V325.926L1999.19 324.686V261.614L1992 260.327V257.705H2015.16V260.327L2006.77 261.614V324.782L2033.23 323.685L2039.24 307.953L2043.1 308.716L2039.57 328.548H1991.9ZM2053.67 324.686V261.614L2046.09 260.327V257.705H2068.79V260.327L2061.21 261.614V324.686L2068.79 325.926V328.548H2046.09V325.926L2053.67 324.686ZM2056.96 252.175L2055.1 250.507L2067.07 234.774L2072.7 239.637C2071.96 240.622 2070.96 241.735 2069.69 242.974C2068.42 244.182 2067.04 245.39 2065.54 246.597C2064.05 247.805 2062.56 248.902 2061.06 249.887C2059.6 250.84 2058.27 251.603 2057.06 252.175H2056.96ZM2074.12 328.548V325.926L2080.89 324.639L2081.41 262.759C2081.03 262.504 2080.43 262.218 2079.6 261.901C2078.77 261.583 2077.87 261.281 2076.88 260.995C2075.93 260.709 2075.01 260.486 2074.12 260.327V257.705H2088.8L2120.98 308.334L2127.18 319.871L2126.65 261.662L2119.03 260.327V257.705H2138.86V260.327L2131.71 261.662L2131.14 328.548H2125.08L2091.8 276.25L2085.37 265.095L2085.94 324.686L2093.81 325.926V328.548H2074.12ZM2150.51 324.686V261.614L2142.93 260.327V257.705H2165.62V260.327L2158.04 261.614V324.686L2165.62 325.926V328.548H2142.93V325.926L2150.51 324.686ZM2200.82 329.549C2195.8 329.549 2191.34 328.659 2187.43 326.879C2183.55 325.099 2180.28 322.605 2177.61 319.395C2174.97 316.185 2172.97 312.402 2171.6 308.048C2170.26 303.694 2169.6 298.943 2169.6 293.794C2169.6 288.391 2170.44 283.433 2172.12 278.92C2173.81 274.407 2176.16 270.514 2179.18 267.24C2182.23 263.935 2185.79 261.376 2189.86 259.565C2193.96 257.753 2198.42 256.847 2203.25 256.847C2205.83 256.847 2208.13 256.99 2210.17 257.276C2212.2 257.562 2214.01 257.896 2215.6 258.277C2217.19 258.659 2218.59 259.008 2219.8 259.326C2221 259.644 2222.02 259.835 2222.85 259.898L2222.08 275.583H2217.17L2215.41 263.235C2214.84 262.727 2213.96 262.234 2212.79 261.758C2211.64 261.281 2210.23 260.899 2208.55 260.613C2206.89 260.296 2205.02 260.137 2202.92 260.137C2197.83 260.137 2193.43 261.44 2189.71 264.046C2186 266.652 2183.12 270.386 2181.09 275.249C2179.05 280.08 2178.03 285.864 2178.03 292.602C2178.03 296.893 2178.46 301.056 2179.32 305.093C2180.21 309.129 2181.59 312.752 2183.47 315.962C2185.38 319.14 2187.86 321.667 2190.91 323.542C2193.99 325.417 2197.74 326.355 2202.16 326.355C2204.51 326.355 2206.51 326.117 2208.16 325.64C2209.82 325.131 2211.2 324.512 2212.31 323.781C2213.46 323.018 2214.44 322.255 2215.27 321.492L2218.94 312.101L2223.04 312.911L2220.94 325.973C2219.7 326.005 2218.51 326.212 2217.37 326.593C2216.25 326.943 2215 327.356 2213.6 327.833C2212.2 328.278 2210.48 328.675 2208.45 329.025C2206.42 329.374 2203.87 329.549 2200.82 329.549ZM2258.58 329.597C2252.06 329.628 2246.58 328.135 2242.13 325.115C2237.68 322.064 2234.31 317.853 2232.03 312.482C2229.74 307.079 2228.59 300.881 2228.59 293.889C2228.59 287.978 2229.39 282.75 2230.98 278.205C2232.6 273.628 2234.84 269.767 2237.7 266.62C2240.59 263.442 2243.96 261.042 2247.81 259.422C2251.65 257.769 2255.78 256.942 2260.2 256.942C2266.62 256.942 2272.02 258.404 2276.41 261.328C2280.83 264.221 2284.18 268.305 2286.47 273.58C2288.76 278.856 2289.9 285.07 2289.9 292.221C2289.9 298.1 2289.09 303.345 2287.47 307.953C2285.88 312.561 2283.66 316.471 2280.8 319.681C2277.97 322.891 2274.65 325.338 2270.83 327.022C2267.05 328.707 2262.97 329.565 2258.58 329.597ZM2259.06 326.403C2263.54 326.403 2267.46 325.131 2270.83 322.589C2274.2 320.046 2276.81 316.248 2278.65 311.195C2280.53 306.141 2281.46 299.817 2281.46 292.221C2281.46 286.023 2280.62 280.509 2278.94 275.678C2277.28 270.847 2274.8 267.049 2271.5 264.284C2268.19 261.519 2264.14 260.137 2259.34 260.137C2254.86 260.137 2250.94 261.376 2247.57 263.855C2244.2 266.302 2241.59 270.021 2239.75 275.011C2237.91 280 2236.98 286.293 2236.98 293.889C2236.98 300.468 2237.81 306.205 2239.46 311.099C2241.15 315.962 2243.63 319.728 2246.9 322.398C2250.17 325.068 2254.23 326.403 2259.06 326.403Z" fill="#F0F0F0"/>
</svg>
